<?xml version="1.0" encoding="UTF-8"?>
<svg xmlns="http://www.w3.org/2000/svg" width="900" height="900" viewBox="0 0 900 900">
<rect width="100%" height="100%" fill="#0f172a"/>
<text x="20" y="28" fill="#e2e8f0" font-family="system-ui,sans-serif" font-size="16">sar-three-target-geofence — search heatmap + paths</text>
<polygon points="97,803 450,803 450,450 97,450 " fill="none" stroke="#22c55e" stroke-width="2.0" stroke-dasharray="8,4"/>
<polygon points="521,379 803,379 803,97 521,97 " fill="none" stroke="#06b6d4" stroke-width="2.0" stroke-dasharray="8,4"/>
<polygon points="97,379 450,379 450,125 97,125 " fill="none" stroke="#a855f7" stroke-width="2.0" stroke-dasharray="8,4"/>
<polygon points="-17,125 40,125 40,68 -17,68 " fill="#ef444433" stroke="#ef4444" stroke-width="1.5"/>
<polygon points="238,690 294,690 294,577 238,577 " fill="#ef444433" stroke="#ef4444" stroke-width="1.5"/>
<polygon points="210,492 351,492 351,379 210,379 " fill="#ef444433" stroke="#ef4444" stroke-width="1.5"/>
<polygon points="408,492 549,492 549,351 408,351 " fill="#ef444433" stroke="#ef4444" stroke-width="1.5"/>
<polygon points="634,266 690,266 690,210 634,210 " fill="#ef444433" stroke="#ef4444" stroke-width="1.5"/>
<polygon points="125,775 181,775 181,719 125,719 " fill="#ef444433" stroke="#ef4444" stroke-width="1.5"/>
<rect x="26" y="860" width="14" height="14" fill="#3b82f6" fill-opacity="0.35"/>
<rect x="54" y="860" width="14" height="14" fill="#3b82f6" fill-opacity="0.35"/>
<rect x="97" y="860" width="14" height="14" fill="#3b82f6" fill-opacity="0.35"/>
<rect x="26" y="846" width="14" height="14" fill="#3b82f6" fill-opacity="0.35"/>
<rect x="97" y="846" width="14" height="14" fill="#3b82f6" fill-opacity="0.35"/>
<rect x="125" y="846" width="14" height="14" fill="#3b82f6" fill-opacity="0.35"/>
<rect x="167" y="846" width="14" height="14" fill="#3b82f6" fill-opacity="0.35"/>
<rect x="82" y="832" width="15" height="14" fill="#3b82f6" fill-opacity="0.35"/>
<rect x="111" y="832" width="14" height="14" fill="#3b82f6" fill-opacity="0.35"/>
<rect x="125" y="832" width="14" height="14" fill="#3b82f6" fill-opacity="0.35"/>
<rect x="196" y="832" width="14" height="14" fill="#3b82f6" fill-opacity="0.35"/>
<rect x="238" y="832" width="14" height="14" fill="#3b82f6" fill-opacity="0.35"/>
<rect x="68" y="818" width="14" height="14" fill="#3b82f6" fill-opacity="0.35"/>
<rect x="266" y="818" width="14" height="14" fill="#3b82f6" fill-opacity="0.35"/>
<rect x="309" y="818" width="14" height="14" fill="#3b82f6" fill-opacity="0.35"/>
<rect x="82" y="803" width="15" height="15" fill="#3b82f6" fill-opacity="0.35"/>
<rect x="139" y="803" width="14" height="15" fill="#3b82f6" fill-opacity="0.35"/>
<rect x="337" y="803" width="14" height="15" fill="#3b82f6" fill-opacity="0.35"/>
<rect x="379" y="803" width="14" height="15" fill="#3b82f6" fill-opacity="0.35"/>
<rect x="54" y="789" width="14" height="14" fill="#3b82f6" fill-opacity="0.35"/>
<rect x="97" y="789" width="14" height="14" fill="#3b82f6" fill-opacity="0.35"/>
<rect x="153" y="789" width="14" height="14" fill="#3b82f6" fill-opacity="0.35"/>
<rect x="167" y="789" width="14" height="14" fill="#3b82f6" fill-opacity="0.35"/>
<rect x="181" y="789" width="15" height="14" fill="#3b82f6" fill-opacity="0.35"/>
<rect x="210" y="789" width="14" height="14" fill="#3b82f6" fill-opacity="0.35"/>
<rect x="238" y="789" width="14" height="14" fill="#3b82f6" fill-opacity="0.35"/>
<rect x="252" y="789" width="14" height="14" fill="#3b82f6" fill-opacity="0.35"/>
<rect x="266" y="789" width="14" height="14" fill="#3b82f6" fill-opacity="0.35"/>
<rect x="309" y="789" width="14" height="14" fill="#3b82f6" fill-opacity="0.35"/>
<rect x="323" y="789" width="14" height="14" fill="#3b82f6" fill-opacity="0.35"/>
<rect x="379" y="789" width="14" height="14" fill="#3b82f6" fill-opacity="0.35"/>
<rect x="393" y="789" width="15" height="14" fill="#3b82f6" fill-opacity="0.35"/>
<rect x="408" y="789" width="14" height="14" fill="#3b82f6" fill-opacity="0.35"/>
<rect x="450" y="789" width="14" height="14" fill="#3b82f6" fill-opacity="0.35"/>
<rect x="196" y="761" width="14" height="14" fill="#3b82f6" fill-opacity="0.35"/>
<rect x="224" y="761" width="14" height="14" fill="#3b82f6" fill-opacity="0.35"/>
<rect x="323" y="761" width="14" height="14" fill="#3b82f6" fill-opacity="0.35"/>
<rect x="422" y="761" width="14" height="14" fill="#3b82f6" fill-opacity="0.35"/>
<rect x="196" y="747" width="14" height="14" fill="#3b82f6" fill-opacity="0.35"/>
<rect x="224" y="747" width="14" height="14" fill="#3b82f6" fill-opacity="0.35"/>
<rect x="238" y="747" width="14" height="14" fill="#3b82f6" fill-opacity="0.35"/>
<rect x="294" y="747" width="15" height="14" fill="#3b82f6" fill-opacity="0.35"/>
<rect x="82" y="733" width="15" height="14" fill="#3b82f6" fill-opacity="0.35"/>
<rect x="97" y="733" width="14" height="14" fill="#3b82f6" fill-opacity="0.35"/>
<rect x="210" y="733" width="14" height="14" fill="#3b82f6" fill-opacity="0.35"/>
<rect x="266" y="733" width="14" height="14" fill="#3b82f6" fill-opacity="0.35"/>
<rect x="280" y="733" width="14" height="14" fill="#3b82f6" fill-opacity="0.35"/>
<rect x="323" y="733" width="14" height="14" fill="#3b82f6" fill-opacity="0.35"/>
<rect x="337" y="733" width="14" height="14" fill="#3b82f6" fill-opacity="0.35"/>
<rect x="379" y="733" width="14" height="14" fill="#3b82f6" fill-opacity="0.35"/>
<rect x="408" y="733" width="14" height="14" fill="#3b82f6" fill-opacity="0.35"/>
<rect x="450" y="733" width="14" height="14" fill="#3b82f6" fill-opacity="0.35"/>
<rect x="97" y="719" width="14" height="14" fill="#3b82f6" fill-opacity="0.35"/>
<rect x="294" y="719" width="15" height="14" fill="#3b82f6" fill-opacity="0.35"/>
<rect x="196" y="704" width="14" height="15" fill="#3b82f6" fill-opacity="0.35"/>
<rect x="210" y="704" width="14" height="15" fill="#3b82f6" fill-opacity="0.35"/>
<rect x="252" y="704" width="14" height="15" fill="#3b82f6" fill-opacity="0.35"/>
<rect x="266" y="704" width="14" height="15" fill="#3b82f6" fill-opacity="0.35"/>
<rect x="280" y="704" width="14" height="15" fill="#3b82f6" fill-opacity="0.35"/>
<rect x="294" y="704" width="15" height="15" fill="#3b82f6" fill-opacity="0.35"/>
<rect x="323" y="704" width="14" height="15" fill="#3b82f6" fill-opacity="0.35"/>
<rect x="450" y="704" width="14" height="15" fill="#3b82f6" fill-opacity="0.35"/>
<rect x="153" y="690" width="14" height="14" fill="#3b82f6" fill-opacity="0.35"/>
<rect x="210" y="690" width="14" height="14" fill="#3b82f6" fill-opacity="0.35"/>
<rect x="266" y="690" width="14" height="14" fill="#3b82f6" fill-opacity="0.35"/>
<rect x="323" y="690" width="14" height="14" fill="#3b82f6" fill-opacity="0.35"/>
<rect x="337" y="690" width="14" height="14" fill="#3b82f6" fill-opacity="0.35"/>
<rect x="351" y="690" width="14" height="14" fill="#3b82f6" fill-opacity="0.35"/>
<rect x="97" y="676" width="14" height="14" fill="#3b82f6" fill-opacity="0.35"/>
<rect x="153" y="676" width="14" height="14" fill="#3b82f6" fill-opacity="0.35"/>
<rect x="167" y="676" width="14" height="14" fill="#3b82f6" fill-opacity="0.35"/>
<rect x="210" y="676" width="14" height="14" fill="#3b82f6" fill-opacity="0.35"/>
<rect x="224" y="676" width="14" height="14" fill="#3b82f6" fill-opacity="0.35"/>
<rect x="309" y="676" width="14" height="14" fill="#3b82f6" fill-opacity="0.35"/>
<rect x="323" y="676" width="14" height="14" fill="#3b82f6" fill-opacity="0.35"/>
<rect x="351" y="676" width="14" height="14" fill="#3b82f6" fill-opacity="0.35"/>
<rect x="379" y="676" width="14" height="14" fill="#3b82f6" fill-opacity="0.35"/>
<rect x="393" y="676" width="15" height="14" fill="#3b82f6" fill-opacity="0.35"/>
<rect x="450" y="676" width="14" height="14" fill="#3b82f6" fill-opacity="0.35"/>
<rect x="82" y="662" width="15" height="14" fill="#3b82f6" fill-opacity="0.35"/>
<rect x="125" y="662" width="14" height="14" fill="#3b82f6" fill-opacity="0.35"/>
<rect x="309" y="662" width="14" height="14" fill="#3b82f6" fill-opacity="0.35"/>
<rect x="379" y="662" width="14" height="14" fill="#3b82f6" fill-opacity="0.35"/>
<rect x="97" y="648" width="14" height="14" fill="#3b82f6" fill-opacity="0.35"/>
<rect x="323" y="648" width="14" height="14" fill="#3b82f6" fill-opacity="0.35"/>
<rect x="337" y="648" width="14" height="14" fill="#3b82f6" fill-opacity="0.35"/>
<rect x="408" y="648" width="14" height="14" fill="#3b82f6" fill-opacity="0.35"/>
<rect x="492" y="648" width="15" height="14" fill="#3b82f6" fill-opacity="0.35"/>
<rect x="408" y="634" width="14" height="14" fill="#3b82f6" fill-opacity="0.35"/>
<rect x="97" y="620" width="14" height="14" fill="#3b82f6" fill-opacity="0.35"/>
<rect x="139" y="620" width="14" height="14" fill="#3b82f6" fill-opacity="0.35"/>
<rect x="210" y="620" width="14" height="14" fill="#3b82f6" fill-opacity="0.35"/>
<rect x="337" y="620" width="14" height="14" fill="#3b82f6" fill-opacity="0.35"/>
<rect x="365" y="620" width="14" height="14" fill="#3b82f6" fill-opacity="0.35"/>
<rect x="379" y="620" width="14" height="14" fill="#3b82f6" fill-opacity="0.35"/>
<rect x="450" y="620" width="14" height="14" fill="#3b82f6" fill-opacity="0.35"/>
<rect x="478" y="620" width="14" height="14" fill="#3b82f6" fill-opacity="0.35"/>
<rect x="153" y="606" width="14" height="14" fill="#3b82f6" fill-opacity="0.35"/>
<rect x="379" y="606" width="14" height="14" fill="#3b82f6" fill-opacity="0.35"/>
<rect x="82" y="591" width="15" height="15" fill="#3b82f6" fill-opacity="0.35"/>
<rect x="478" y="591" width="14" height="15" fill="#3b82f6" fill-opacity="0.35"/>
<rect x="507" y="591" width="14" height="15" fill="#3b82f6" fill-opacity="0.35"/>
<rect x="97" y="577" width="14" height="14" fill="#3b82f6" fill-opacity="0.35"/>
<rect x="422" y="577" width="14" height="14" fill="#3b82f6" fill-opacity="0.35"/>
<rect x="521" y="577" width="14" height="14" fill="#3b82f6" fill-opacity="0.35"/>
<rect x="535" y="577" width="14" height="14" fill="#3b82f6" fill-opacity="0.35"/>
<rect x="351" y="549" width="14" height="14" fill="#3b82f6" fill-opacity="0.35"/>
<rect x="535" y="549" width="14" height="14" fill="#3b82f6" fill-opacity="0.35"/>
<rect x="577" y="549" width="14" height="14" fill="#3b82f6" fill-opacity="0.35"/>
<rect x="82" y="521" width="15" height="14" fill="#3b82f6" fill-opacity="0.35"/>
<rect x="563" y="521" width="14" height="14" fill="#3b82f6" fill-opacity="0.35"/>
<rect x="97" y="507" width="14" height="14" fill="#3b82f6" fill-opacity="0.35"/>
<rect x="577" y="507" width="14" height="14" fill="#3b82f6" fill-opacity="0.35"/>
<rect x="591" y="507" width="15" height="14" fill="#3b82f6" fill-opacity="0.35"/>
<rect x="549" y="492" width="14" height="15" fill="#3b82f6" fill-opacity="0.35"/>
<rect x="577" y="492" width="14" height="15" fill="#3b82f6" fill-opacity="0.35"/>
<rect x="351" y="478" width="14" height="14" fill="#3b82f6" fill-opacity="0.35"/>
<rect x="648" y="478" width="14" height="14" fill="#3b82f6" fill-opacity="0.35"/>
<rect x="591" y="464" width="15" height="14" fill="#3b82f6" fill-opacity="0.35"/>
<rect x="82" y="450" width="15" height="14" fill="#3b82f6" fill-opacity="0.35"/>
<rect x="97" y="436" width="14" height="14" fill="#3b82f6" fill-opacity="0.35"/>
<rect x="591" y="436" width="15" height="14" fill="#3b82f6" fill-opacity="0.35"/>
<rect x="704" y="436" width="15" height="14" fill="#3b82f6" fill-opacity="0.35"/>
<rect x="549" y="422" width="14" height="14" fill="#3b82f6" fill-opacity="0.35"/>
<rect x="577" y="422" width="14" height="14" fill="#3b82f6" fill-opacity="0.35"/>
<rect x="365" y="408" width="14" height="14" fill="#3b82f6" fill-opacity="0.35"/>
<rect x="620" y="393" width="14" height="15" fill="#3b82f6" fill-opacity="0.35"/>
<rect x="761" y="393" width="14" height="15" fill="#3b82f6" fill-opacity="0.35"/>
<rect x="82" y="379" width="15" height="14" fill="#3b82f6" fill-opacity="0.35"/>
<rect x="97" y="365" width="14" height="14" fill="#3b82f6" fill-opacity="0.35"/>
<rect x="167" y="365" width="14" height="14" fill="#3b82f6" fill-opacity="0.35"/>
<rect x="238" y="365" width="14" height="14" fill="#3b82f6" fill-opacity="0.35"/>
<rect x="266" y="365" width="14" height="14" fill="#3b82f6" fill-opacity="0.35"/>
<rect x="549" y="365" width="14" height="14" fill="#3b82f6" fill-opacity="0.35"/>
<rect x="606" y="365" width="14" height="14" fill="#3b82f6" fill-opacity="0.35"/>
<rect x="634" y="365" width="14" height="14" fill="#3b82f6" fill-opacity="0.35"/>
<rect x="662" y="365" width="14" height="14" fill="#3b82f6" fill-opacity="0.35"/>
<rect x="704" y="365" width="15" height="14" fill="#3b82f6" fill-opacity="0.35"/>
<rect x="733" y="365" width="14" height="14" fill="#3b82f6" fill-opacity="0.35"/>
<rect x="775" y="365" width="14" height="14" fill="#3b82f6" fill-opacity="0.35"/>
<rect x="803" y="365" width="15" height="14" fill="#3b82f6" fill-opacity="0.35"/>
<rect x="294" y="351" width="15" height="14" fill="#3b82f6" fill-opacity="0.35"/>
<rect x="591" y="351" width="15" height="14" fill="#3b82f6" fill-opacity="0.35"/>
<rect x="224" y="337" width="14" height="14" fill="#3b82f6" fill-opacity="0.35"/>
<rect x="379" y="337" width="14" height="14" fill="#3b82f6" fill-opacity="0.35"/>
<rect x="436" y="337" width="14" height="14" fill="#3b82f6" fill-opacity="0.35"/>
<rect x="450" y="337" width="14" height="14" fill="#3b82f6" fill-opacity="0.35"/>
<rect x="634" y="337" width="14" height="14" fill="#3b82f6" fill-opacity="0.35"/>
<rect x="662" y="337" width="14" height="14" fill="#3b82f6" fill-opacity="0.35"/>
<rect x="153" y="323" width="14" height="14" fill="#3b82f6" fill-opacity="0.35"/>
<rect x="365" y="323" width="14" height="14" fill="#3b82f6" fill-opacity="0.35"/>
<rect x="507" y="323" width="14" height="14" fill="#3b82f6" fill-opacity="0.35"/>
<rect x="97" y="309" width="14" height="14" fill="#3b82f6" fill-opacity="0.35"/>
<rect x="125" y="309" width="14" height="14" fill="#3b82f6" fill-opacity="0.35"/>
<rect x="196" y="309" width="14" height="14" fill="#3b82f6" fill-opacity="0.35"/>
<rect x="266" y="309" width="14" height="14" fill="#3b82f6" fill-opacity="0.35"/>
<rect x="323" y="309" width="14" height="14" fill="#3b82f6" fill-opacity="0.35"/>
<rect x="379" y="309" width="14" height="14" fill="#3b82f6" fill-opacity="0.35"/>
<rect x="577" y="309" width="14" height="14" fill="#3b82f6" fill-opacity="0.35"/>
<rect x="606" y="309" width="14" height="14" fill="#3b82f6" fill-opacity="0.35"/>
<rect x="662" y="309" width="14" height="14" fill="#3b82f6" fill-opacity="0.35"/>
<rect x="676" y="309" width="14" height="14" fill="#3b82f6" fill-opacity="0.35"/>
<rect x="704" y="309" width="15" height="14" fill="#3b82f6" fill-opacity="0.35"/>
<rect x="733" y="309" width="14" height="14" fill="#3b82f6" fill-opacity="0.35"/>
<rect x="747" y="309" width="14" height="14" fill="#3b82f6" fill-opacity="0.35"/>
<rect x="803" y="309" width="15" height="14" fill="#3b82f6" fill-opacity="0.35"/>
<rect x="591" y="280" width="15" height="14" fill="#3b82f6" fill-opacity="0.35"/>
<rect x="662" y="280" width="14" height="14" fill="#3b82f6" fill-opacity="0.35"/>
<rect x="690" y="266" width="14" height="14" fill="#3b82f6" fill-opacity="0.35"/>
<rect x="97" y="252" width="14" height="14" fill="#3b82f6" fill-opacity="0.35"/>
<rect x="167" y="252" width="14" height="14" fill="#3b82f6" fill-opacity="0.35"/>
<rect x="238" y="252" width="14" height="14" fill="#3b82f6" fill-opacity="0.35"/>
<rect x="266" y="252" width="14" height="14" fill="#3b82f6" fill-opacity="0.35"/>
<rect x="606" y="252" width="14" height="14" fill="#3b82f6" fill-opacity="0.35"/>
<rect x="704" y="252" width="15" height="14" fill="#3b82f6" fill-opacity="0.35"/>
<rect x="775" y="252" width="14" height="14" fill="#3b82f6" fill-opacity="0.35"/>
<rect x="803" y="252" width="15" height="14" fill="#3b82f6" fill-opacity="0.35"/>
<rect x="606" y="210" width="14" height="14" fill="#3b82f6" fill-opacity="0.35"/>
<rect x="733" y="210" width="14" height="14" fill="#3b82f6" fill-opacity="0.35"/>
<rect x="606" y="196" width="14" height="14" fill="#3b82f6" fill-opacity="0.35"/>
<rect x="676" y="196" width="14" height="14" fill="#3b82f6" fill-opacity="0.35"/>
<rect x="704" y="196" width="15" height="14" fill="#3b82f6" fill-opacity="0.35"/>
<rect x="733" y="196" width="14" height="14" fill="#3b82f6" fill-opacity="0.35"/>
<rect x="803" y="196" width="15" height="14" fill="#3b82f6" fill-opacity="0.35"/>
<rect x="606" y="139" width="14" height="14" fill="#3b82f6" fill-opacity="0.35"/>
<rect x="634" y="139" width="14" height="14" fill="#3b82f6" fill-opacity="0.35"/>
<rect x="704" y="139" width="15" height="14" fill="#3b82f6" fill-opacity="0.35"/>
<polyline fill="none" stroke="#2563eb" stroke-width="2.5" stroke-opacity="0.85" points="76,824 97,803 97,803 167,803 238,803 273,803 273,803 273,747 273,747 209,717 153,690 153,690 103,740 97,747 97,747 97,690 97,690 167,690 235,684 210,719 210,719 267,693 267,693 267,693 216,742 165,792 153,803 153,803 97,803 97,803 167,803 214,803 214,803 214,747 214,747 162,699 153,690 153,690 103,740 97,747 97,747 97,690 97,690 167,690 214,690 214,690 214,634 214,634 144,634 97,634 97,634 162,608 130,670 98,733 66,796 33,859 26,874 26,874 26,874 26,874 26,874 26,874 26,874 26,874 26,874 26,874 26,874 26,874 26,874 26,874 "/>
<circle cx="26" cy="874" r="5" fill="#2563eb"/>
<polyline fill="none" stroke="#dc2626" stroke-width="2.5" stroke-opacity="0.85" points="110,862 179,850 249,838 319,826 388,814 450,803 450,803 379,803 309,803 273,803 273,803 273,747 273,747 344,747 415,747 450,747 450,747 450,690 450,690 379,690 309,690 267,693 267,693 267,693 303,754 332,803 332,803 261,803 214,803 214,803 214,747 214,747 285,747 332,747 332,747 332,690 332,690 267,718 266,719 266,719 214,690 214,690 214,634 214,634 210,704 210,719 210,719 280,719 323,719 323,719 331,648 393,616 339,661 284,706 230,751 175,795 120,840 97,860 97,860 27,874 26,874 26,874 26,874 26,874 26,874 26,874 26,874 26,874 26,874 26,874 "/>
<circle cx="26" cy="874" r="5" fill="#dc2626"/>
<polyline fill="none" stroke="#16a34a" stroke-width="2.5" stroke-opacity="0.85" points="115,838 176,802 236,766 297,730 358,693 419,657 479,621 540,585 577,563 577,563 556,496 550,428 549,379 549,379 549,379 549,379 549,379 549,379 549,379 549,379 549,379 549,379 549,379 549,379 549,379 549,379 549,379 549,379 549,379 549,379 549,379 549,379 549,379 549,379 549,379 549,379 549,379 549,379 549,379 549,379 549,379 549,379 549,379 549,379 549,379 549,379 549,379 549,379 549,379 549,379 549,379 615,379 601,449 587,518 577,563 577,563 516,598 454,633 393,667 331,702 269,737 208,771 146,806 85,841 26,874 26,874 26,874 26,874 26,874 26,874 "/>
<circle cx="26" cy="874" r="5" fill="#16a34a"/>
<polyline fill="none" stroke="#9333ea" stroke-width="2.5" stroke-opacity="0.85" points="127,835 186,795 244,756 303,716 361,677 420,637 479,598 537,558 596,519 655,479 713,440 772,400 803,379 803,379 733,379 662,379 662,379 662,323 662,323 733,323 803,323 803,323 803,266 803,266 758,321 713,375 709,379 709,379 639,379 615,379 615,379 615,323 615,323 686,323 709,323 709,323 709,266 709,266 662,294 662,294 615,266 615,266 615,210 615,210 686,210 709,210 709,210 709,153 709,153 639,153 615,153 607,223 601,294 595,364 589,435 582,505 577,563 577,563 516,598 454,633 393,667 331,702 269,737 208,771 146,806 85,841 26,874 26,874 26,874 26,874 "/>
<circle cx="26" cy="874" r="5" fill="#9333ea"/>
<polyline fill="none" stroke="#ea580c" stroke-width="2.5" stroke-opacity="0.85" points="84,803 86,733 88,662 90,591 93,521 95,450 97,380 97,379 97,379 167,379 238,379 273,379 273,379 273,323 273,323 203,323 132,323 97,323 97,323 97,266 97,266 167,266 238,266 273,266 328,310 379,351 379,351 372,421 365,492 357,562 350,632 343,703 335,773 332,803 332,803 403,803 450,803 450,803 450,747 450,747 379,747 332,747 332,747 332,690 332,690 403,690 450,690 450,690 450,634 450,634 379,634 435,591 379,633 322,676 266,718 210,761 153,803 153,803 91,838 30,872 26,874 26,874 26,874 26,874 26,874 26,874 26,874 26,874 26,874 26,874 "/>
<circle cx="26" cy="874" r="5" fill="#ea580c"/>
<polyline fill="none" stroke="#2563eb" stroke-width="2.5" stroke-opacity="0.85" points="97,803 97,733 97,662 97,591 97,521 97,450 97,379 97,323 97,323 166,334 236,345 306,356 370,327 379,323 379,323 443,347 450,351 450,351 450,351 450,351 450,351 450,351 450,351 450,351 519,336 577,323 577,323 642,351 707,378 709,379 709,379 780,379 803,379 803,379 803,323 803,323 733,323 709,323 709,323 709,266 709,266 780,266 803,266 803,266 803,210 803,210 733,210 709,210 709,210 709,153 709,153 736,218 702,280 667,342 632,403 598,465 563,526 529,588 494,650 459,711 425,773 408,803 408,803 338,816 269,829 199,842 130,855 60,868 26,874 26,874 "/>
<circle cx="26" cy="874" r="5" fill="#2563eb"/>
<rect x="27" y="861" width="12" height="12" fill="#eab308" stroke="#fef08a" stroke-width="1"/>
<text x="43" y="871" fill="#fef08a" font-size="11">base</text>
<circle cx="316" cy="627" r="7" fill="none" stroke="#fb923c" stroke-width="2"/>
<circle cx="316" cy="627" r="3" fill="#fb923c"/>
<text x="326" y="631" fill="#fb923c" font-size="10">t1 · FOUND t51</text>
<circle cx="613" cy="231" r="7" fill="none" stroke="#f472b6" stroke-width="2"/>
<circle cx="613" cy="231" r="3" fill="#f472b6"/>
<text x="623" y="235" fill="#f472b6" font-size="10">t2 · FOUND t52</text>
<circle cx="273" cy="245" r="7" fill="none" stroke="#facc15" stroke-width="2"/>
<circle cx="273" cy="245" r="3" fill="#facc15"/>
<text x="283" y="249" fill="#facc15" font-size="10">t3 · FOUND t24</text>
<g font-family="system-ui,sans-serif" font-size="12" fill="#cbd5e1">
<rect x="20" y="874" width="12" height="3" fill="#2563eb"/>
<text x="38" y="884">d-01</text>
<rect x="20" y="856" width="12" height="3" fill="#dc2626"/>
<text x="38" y="866">d-02</text>
<rect x="20" y="838" width="12" height="3" fill="#16a34a"/>
<text x="38" y="848">d-03</text>
<rect x="20" y="820" width="12" height="3" fill="#9333ea"/>
<text x="38" y="830">d-04</text>
<rect x="20" y="802" width="12" height="3" fill="#ea580c"/>
<text x="38" y="812">d-05</text>
<rect x="20" y="784" width="12" height="3" fill="#2563eb"/>
<text x="38" y="794">d-06</text>
</g>
<rect x="608" y="762" width="268" height="108" rx="8" fill="#1e293b" fill-opacity="0.92" stroke="#475569"/>
<text x="620" y="780" fill="#e2e8f0" font-family="system-ui,sans-serif" font-size="13" font-weight="600">Mission status</text>
<text x="620" y="798" fill="#4ade80" font-family="system-ui,sans-serif" font-size="12">All targets found</text>
<text x="620" y="814" fill="#94a3b8" font-family="system-ui,sans-serif" font-size="11">Ticks: 70 · searched cells: 187 · landed: true</text>
<text x="620" y="830" fill="#cbd5e1" font-family="system-ui,sans-serif" font-size="11">t1 (person): found tick 51</text>
<text x="620" y="844" fill="#cbd5e1" font-family="system-ui,sans-serif" font-size="11">t2 (vehicle): found tick 52</text>
<text x="620" y="858" fill="#cbd5e1" font-family="system-ui,sans-serif" font-size="11">t3 (person): found tick 24</text>
<text x="20" y="800" fill="#f87171" font-family="system-ui,sans-serif" font-size="11">No-fly zones: 6</text>
</svg>
